<svg width="50" height="51" viewBox="0 0 50 51" fill="none" xmlns="http://www.w3.org/2000/svg">
<path fill-rule="evenodd" clip-rule="evenodd" d="M24.2732 5.81112C24.7348 5.60039 25.2652 5.60039 25.7268 5.81112L48.7268 16.3111C49.3501 16.5957 49.75 17.2179 49.75 17.9031C49.75 18.5883 49.3501 19.2105 48.7268 19.495L25.7268 29.995C25.2652 30.2058 24.7348 30.2058 24.2732 29.995L1.27324 19.495C0.649907 19.2105 0.25 18.5883 0.25 17.9031C0.25 17.2179 0.649907 16.5957 1.27324 16.3111L24.2732 5.81112ZM6.2139 17.9031L25 26.4793L43.7861 17.9031L25 9.32681L6.2139 17.9031Z" fill="#A4925A"/>
<path fill-rule="evenodd" clip-rule="evenodd" d="M44.75 17.4031C45.7165 17.4031 46.5 18.1866 46.5 19.1531V34.6531C46.5 35.6196 45.7165 36.4031 44.75 36.4031C43.7835 36.4031 43 35.6196 43 34.6531V19.1531C43 18.1866 43.7835 17.4031 44.75 17.4031Z" fill="#A4925A"/>
<path fill-rule="evenodd" clip-rule="evenodd" d="M12 20.6531C12.9665 20.6531 13.75 21.4366 13.75 22.4031V34.8201C15.8772 36.709 19.3597 38.8104 23.4122 39.4544C27.5665 40.1146 32.4282 39.2682 37.25 34.8297V22.4031C37.25 21.4366 38.0335 20.6531 39 20.6531C39.9665 20.6531 40.75 21.4366 40.75 22.4031V36.319L40.2224 36.834C34.4162 42.5021 28.2319 43.7643 22.8628 42.911C17.5955 42.074 13.2288 39.2269 10.7776 36.834L10.25 36.319V22.4031C10.25 21.4366 11.0335 20.6531 12 20.6531Z" fill="#A4925A"/>
</svg>
