<svg width="24" height="24" viewBox="0 0 24 24" fill="none" xmlns="http://www.w3.org/2000/svg">
<path fill-rule="evenodd" clip-rule="evenodd" d="M6.34314 6.34319C6.73366 5.95266 7.36683 5.95266 7.75735 6.34319L17.6568 16.2427C18.0474 16.6332 18.0474 17.2664 17.6568 17.6569C17.2663 18.0474 16.6332 18.0474 16.2426 17.6569L6.34314 7.7574C5.95261 7.36688 5.95261 6.73371 6.34314 6.34319Z" fill="#222222"/>
<path fill-rule="evenodd" clip-rule="evenodd" d="M6.34314 17.6568C5.95261 17.2663 5.95261 16.6331 6.34314 16.2426L16.2426 6.34311C16.6332 5.95258 17.2663 5.95258 17.6568 6.34311C18.0474 6.73363 18.0474 7.3668 17.6568 7.75732L7.75735 17.6568C7.36683 18.0473 6.73366 18.0473 6.34314 17.6568Z" fill="#222222"/>
</svg>
