<svg width="51" height="51" viewBox="0 0 51 51" fill="none" xmlns="http://www.w3.org/2000/svg">
<g clip-path="url(#clip0_4316_117788)">
<path fill-rule="evenodd" clip-rule="evenodd" d="M27.6258 11.7707C28.8066 10.9905 29.5856 9.65116 29.5856 8.1299C29.5856 5.72157 27.6332 3.76924 25.2249 3.76924C22.8166 3.76924 20.8643 5.72157 20.8643 8.1299C20.8643 9.65114 21.6432 10.9904 22.824 11.7707C19.9252 12.9908 17.842 16.3591 17.842 20.3232H32.6077C32.6077 16.3591 30.5245 12.9909 27.6258 11.7707Z" fill="#A4925A"/>
<path fill-rule="evenodd" clip-rule="evenodd" d="M44.404 17.8562C45.3261 16.4056 47.1723 15.8503 48.7416 16.5515C50.381 17.2839 51.1965 19.1533 50.5945 20.8583C49.698 23.3971 48.4834 26.7419 47.3502 29.6575C46.7842 31.114 46.2331 32.4771 45.7488 33.5843C45.2888 34.6361 44.8244 35.6113 44.4282 36.1752C43.7297 37.1691 42.3394 38.7246 40.9716 40.1893C39.8908 41.3468 38.7658 42.5089 37.8808 43.4067L39.2894 48.7896C39.4266 49.3142 39.313 49.8728 38.9816 50.302C38.6503 50.7312 38.1386 50.9826 37.5964 50.9826H28.6907C27.7242 50.9826 26.9407 50.1991 26.9407 49.2326C26.9407 48.2661 27.7242 47.4826 28.6907 47.4826H35.3295L34.2419 43.3262C34.0845 42.7249 34.2579 42.0853 34.6974 41.6458C35.606 40.7372 37.0486 39.2623 38.4135 37.8006C39.8081 36.3072 41.0287 34.9253 41.5645 34.1628C41.7265 33.9324 42.0614 33.281 42.5421 32.1818C42.9986 31.138 43.5299 29.8255 44.088 28.3896C45.1569 25.6394 46.3049 22.4864 47.1819 20.0104L43.2864 26.1387C42.7679 26.9543 41.6864 27.1952 40.8708 26.6768C40.0551 26.1583 39.8142 25.0768 40.3327 24.2611L44.404 17.8562ZM47.2942 19.6929C47.2942 19.693 47.2941 19.6932 47.2941 19.6933Z" fill="#A4925A"/>
<path fill-rule="evenodd" clip-rule="evenodd" d="M37.4852 24.3271C38.6666 23.2711 40.4002 23.2199 41.6479 24.1245C42.9611 25.0765 43.4029 26.833 42.6964 28.293L39.3331 35.244C38.9121 36.114 37.8656 36.478 36.9956 36.057C36.1256 35.636 35.7616 34.5895 36.1825 33.7195L39.1897 27.5047C36.9238 29.578 34.103 32.4109 31.7829 35.2869C30.5121 36.8621 29.4226 38.4122 28.6564 39.8286C27.8715 41.2794 27.5181 42.4235 27.5117 43.2297C27.5039 44.1961 26.7142 44.9734 25.7477 44.9656C24.7813 44.9579 24.004 44.1681 24.0118 43.2017C24.025 41.5477 24.6925 39.8001 25.5779 38.1633C26.482 36.4921 27.7122 34.7586 29.0588 33.0893C31.7536 29.7489 35.0388 26.5139 37.4852 24.3271Z" fill="#A4925A"/>
<path fill-rule="evenodd" clip-rule="evenodd" d="M6.58273 17.8562C5.66063 16.4056 3.81443 15.8503 2.24506 16.5515C0.605713 17.2839 -0.209839 19.1533 0.392216 20.8583C1.28873 23.3971 2.50329 26.7419 3.63647 29.6575C4.20255 31.114 4.75359 32.4771 5.23787 33.5843C5.69789 34.6361 6.16231 35.6113 6.55853 36.1752C7.25701 37.1691 8.64733 38.7246 10.0151 40.1893C11.096 41.3468 12.2209 42.5089 13.1059 43.4067L11.6973 48.7896C11.5601 49.3142 11.6737 49.8728 12.0051 50.302C12.3365 50.7312 12.8481 50.9826 13.3903 50.9826H22.0598C23.0263 50.9826 23.8098 50.1991 23.8098 49.2326C23.8098 48.2661 23.0263 47.4826 22.0598 47.4826H15.6572L16.7448 43.3262C16.9022 42.7249 16.7288 42.0853 16.2893 41.6458C15.3807 40.7372 13.9381 39.2623 12.5732 37.8006C11.1786 36.3072 9.95799 34.9253 9.4222 34.1628C9.26023 33.9324 8.92535 33.281 8.44457 32.1818C7.98806 31.138 7.45682 29.8255 6.89874 28.3896C5.82985 25.6394 4.68183 22.4864 3.80478 20.0104L7.70029 26.1387C8.21877 26.9543 9.3003 27.1953 10.116 26.6768C10.9316 26.1583 11.1725 25.0768 10.654 24.2611L6.58273 17.8562ZM3.6925 19.6929C3.69255 19.693 3.69259 19.6932 3.69264 19.6933Z" fill="#A4925A"/>
<path fill-rule="evenodd" clip-rule="evenodd" d="M13.5012 24.3269C12.3194 23.2705 10.586 23.2202 9.33869 24.1245C8.02552 25.0765 7.58373 26.833 8.29019 28.293L11.6536 35.244C12.0745 36.114 13.1211 36.478 13.9911 36.057C14.8611 35.636 15.2251 34.5895 14.8041 33.7195L11.7969 27.5047C14.3825 29.8705 17.6798 33.2155 20.1351 36.4811C20.7159 37.2536 21.813 37.409 22.5855 36.8282C23.358 36.2474 23.5134 35.1503 22.9326 34.3778C20.0835 30.5884 16.2535 26.7871 13.5012 24.3269Z" fill="#A4925A"/>
<path fill-rule="evenodd" clip-rule="evenodd" d="M37.3356 7.91159C38.2709 7.29353 38.8879 6.23265 38.8879 5.02765C38.8879 3.11994 37.3414 1.57344 35.4337 1.57344C33.526 1.57344 31.9795 3.11994 31.9795 5.02765C31.9795 6.23272 32.5966 7.29366 33.532 7.9117C32.3981 8.38902 31.4218 9.28127 30.7239 10.4404C30.7978 10.5201 30.9293 10.6335 31.0971 10.7783C31.5283 11.1503 32.1995 11.7295 32.7514 12.4753C33.3296 13.2567 33.6626 13.965 33.858 14.3807C33.9217 14.5162 33.9708 14.6206 34.009 14.6864H41.282C41.282 11.5462 39.6319 8.87808 37.3356 7.91159Z" fill="#A4925A"/>
<path fill-rule="evenodd" clip-rule="evenodd" d="M13.1146 7.91159C12.1793 7.29353 11.5623 6.23265 11.5623 5.02765C11.5623 3.11994 13.1088 1.57344 15.0165 1.57344C16.9242 1.57344 18.4707 3.11994 18.4707 5.02765C18.4707 6.23272 17.8536 7.29366 16.9182 7.9117C18.0521 8.38902 19.0284 9.28127 19.7263 10.4404C19.6524 10.5201 19.5209 10.6335 19.3531 10.7783C18.9219 11.1503 18.2507 11.7295 17.6988 12.4753C17.1206 13.2567 16.7876 13.965 16.5922 14.3807C16.5285 14.5162 16.4794 14.6206 16.4412 14.6864H9.16815C9.16815 11.5462 10.8183 8.87808 13.1146 7.91159Z" fill="#A4925A"/>
</g>
<defs>
<clipPath id="clip0_4316_117788">
<rect width="50" height="50" fill="white" transform="translate(0.493164 0.403015)"/>
</clipPath>
</defs>
</svg>
