<svg width="51" height="51" viewBox="0 0 51 51" fill="none" xmlns="http://www.w3.org/2000/svg">
<g clip-path="url(#clip0_4316_117715)">
<path d="M26.1572 25.903C28.3823 25.903 30.5573 25.2432 32.4074 24.007C34.2574 22.7709 35.6994 21.0139 36.5509 18.9582C37.4024 16.9025 37.6251 14.6405 37.1911 12.4582C36.757 10.276 35.6855 8.2714 34.1122 6.69806C32.5388 5.12472 30.5343 4.05326 28.352 3.61918C26.1697 3.18509 23.9077 3.40788 21.852 4.25937C19.7964 5.11085 18.0394 6.55279 16.8032 8.40285C15.567 10.2529 14.9072 12.428 14.9072 14.653C14.9072 17.6367 16.0925 20.4982 18.2023 22.608C20.3121 24.7177 23.1735 25.903 26.1572 25.903ZM24.751 9.02801C24.751 8.65505 24.8991 8.29736 25.1629 8.03364C25.4266 7.76992 25.7843 7.62176 26.1572 7.62176C26.5302 7.62176 26.8879 7.76992 27.1516 8.03364C27.4153 8.29736 27.5635 8.65505 27.5635 9.02801V13.2468H29.9072C30.2802 13.2468 30.6379 13.3949 30.9016 13.6586C31.1653 13.9224 31.3135 14.28 31.3135 14.653C31.3135 15.026 31.1653 15.3837 30.9016 15.6474C30.6379 15.9111 30.2802 16.0593 29.9072 16.0593H26.1572C25.7858 16.0544 25.4309 15.9047 25.1682 15.642C24.9056 15.3793 24.7558 15.0245 24.751 14.653V9.02801Z" fill="#A4925A"/>
<path d="M47.7947 12.178C47.2567 11.6579 46.5368 11.3686 45.7885 11.3718C44.6447 11.3718 43.5385 11.3718 42.4322 11.503C41.9349 11.5378 41.4719 11.7688 41.1448 12.145C40.8178 12.5212 40.6537 13.012 40.6885 13.5093C40.7233 14.0065 40.9542 14.4696 41.3305 14.7966C41.7067 15.1237 42.1974 15.2878 42.6947 15.253C43.426 15.253 44.1572 15.1593 44.9072 15.1405V38.053C38.5135 38.2218 31.9885 39.403 28.0322 41.6155V31.528C28.0322 31.0307 27.8347 30.5538 27.4831 30.2022C27.1314 29.8506 26.6545 29.653 26.1572 29.653C25.6599 29.653 25.183 29.8506 24.8314 30.2022C24.4798 30.5538 24.2822 31.0307 24.2822 31.528V41.6155C20.326 39.403 13.801 38.2218 7.40723 38.0343V15.1405C8.13848 15.1405 8.88848 15.1405 9.61973 15.253C10.117 15.2878 10.6077 15.1237 10.984 14.7966C11.3602 14.4696 11.5912 14.0065 11.626 13.5093C11.6608 13.012 11.4966 12.5212 11.1696 12.145C10.8426 11.7688 10.3795 11.5378 9.88223 11.503C8.75723 11.503 7.65098 11.3905 6.54473 11.3718C6.1678 11.3653 5.79329 11.4331 5.44261 11.5715C5.09193 11.7098 4.77195 11.9159 4.50098 12.178C3.96428 12.7157 3.66113 13.4433 3.65723 14.203V39.028C3.66682 39.7677 3.96366 40.4747 4.485 40.9996C5.00635 41.5244 5.71135 41.826 6.45098 41.8405C18.2072 41.953 24.2822 45.178 24.2822 46.528C24.2822 47.0253 24.4798 47.5022 24.8314 47.8539C25.183 48.2055 25.6599 48.403 26.1572 48.403C26.6545 48.403 27.1314 48.2055 27.4831 47.8539C27.8347 47.5022 28.0322 47.0253 28.0322 46.528C28.0322 45.178 34.1072 41.953 45.8635 41.7655C46.5919 41.7563 47.2887 41.4666 47.8091 40.9568C48.3294 40.4469 48.6332 39.7561 48.6572 39.028V14.203C48.6592 13.8245 48.5837 13.4496 48.4353 13.1013C48.287 12.7531 48.069 12.4389 47.7947 12.178V12.178Z" fill="#A4925A"/>
</g>
<defs>
<clipPath id="clip0_4316_117715">
<rect width="45" height="45" fill="white" transform="translate(3.65723 3.40302)"/>
</clipPath>
</defs>
</svg>
