<svg width="50" height="51" viewBox="0 0 50 51" fill="none" xmlns="http://www.w3.org/2000/svg">
<path fill-rule="evenodd" clip-rule="evenodd" d="M46 36.7159L44.2984 34.403H5.6299L4 36.6849V40.403H46V36.7159ZM4.60066 30.403C3.95476 30.403 3.34862 30.7149 2.9732 31.2405L0.372533 34.8815C0.130246 35.2207 0 35.6271 0 36.0439V42.403C0 43.5076 0.895432 44.403 2 44.403H48C49.1046 44.403 50 43.5076 50 42.403V36.0595C50 35.633 49.8637 35.2177 49.611 34.8742L46.9209 31.2178C46.544 30.7055 45.9459 30.403 45.3099 30.403H4.60066Z" fill="#A4925A"/>
<path fill-rule="evenodd" clip-rule="evenodd" d="M10.8759 15.4758C7.68918 19.9245 6 26.2261 6 33.403H2C2 25.6683 3.81082 18.4699 7.6241 13.1465C11.4904 7.7491 17.3392 4.40302 25 4.40302C32.6608 4.40302 38.5096 7.7491 42.3759 13.1465C46.1892 18.4699 48 25.6683 48 33.403H44C44 26.2261 42.3108 19.9245 39.1241 15.4758C35.9904 11.1011 31.3392 8.40302 25 8.40302C18.6608 8.40302 14.0096 11.1011 10.8759 15.4758Z" fill="#A4925A"/>
<path fill-rule="evenodd" clip-rule="evenodd" d="M17.4404 20.9583C15.8314 23.2126 15 26.4987 15 30.403H11C11 26.0231 11.9186 21.8092 14.1846 18.6345C16.5202 15.3623 20.144 13.403 25 13.403C30.0737 13.403 33.7272 15.3395 36.0206 18.6597C38.2266 21.8534 39 26.0767 39 30.403H35C35 26.445 34.2734 23.1683 32.7294 20.9331C31.2728 18.8244 28.9263 17.403 25 17.403C21.356 17.403 18.9798 18.8016 17.4404 20.9583Z" fill="#A4925A"/>
<path fill-rule="evenodd" clip-rule="evenodd" d="M24.3136 26.8439C24.0613 27.5381 24 28.6656 24 30.403H20C20 28.8279 20.0171 26.9554 20.5541 25.4778C20.8439 24.6803 21.3276 23.8637 22.1498 23.2614C22.9813 22.6522 23.9662 22.403 25 22.403C26.0338 22.403 27.0187 22.6522 27.8502 23.2614C28.6724 23.8637 29.1561 24.6803 29.4459 25.4778C29.9829 26.9554 30 28.8279 30 30.403H26C26 28.6656 25.9387 27.5381 25.6864 26.8439C25.5827 26.5584 25.4949 26.4944 25.4864 26.4882L25.4862 26.488C25.478 26.482 25.4528 26.4645 25.3894 26.4462C25.3217 26.4266 25.1989 26.403 25 26.403C24.8011 26.403 24.6783 26.4266 24.6106 26.4462C24.5472 26.4645 24.522 26.482 24.5138 26.488L24.5136 26.4882C24.5051 26.4944 24.4173 26.5584 24.3136 26.8439Z" fill="#A4925A"/>
<path d="M22 26.403H28V32.403H22V26.403Z" fill="#A4925A"/>
<path fill-rule="evenodd" clip-rule="evenodd" d="M27 27.403H23V31.403H27V27.403ZM22 26.403V32.403H28V26.403H22Z" fill="#A4925A"/>
</svg>
