<svg width="50" height="51" viewBox="0 0 50 51" fill="none" xmlns="http://www.w3.org/2000/svg">
<path fill-rule="evenodd" clip-rule="evenodd" d="M14 18.903C17.7612 18.903 20.5 16.0497 20.5 12.903C20.5 9.7563 17.7612 6.90302 14 6.90302C10.2388 6.90302 7.5 9.7563 7.5 12.903C7.5 16.0497 10.2388 18.903 14 18.903ZM14 22.403C19.5228 22.403 24 18.1497 24 12.903C24 7.65631 19.5228 3.40302 14 3.40302C8.47715 3.40302 4 7.65631 4 12.903C4 18.1497 8.47715 22.403 14 22.403Z" fill="#A4925A"/>
<path fill-rule="evenodd" clip-rule="evenodd" d="M33.5 18.903C36.4643 18.903 38.5 16.6914 38.5 14.403C38.5 12.1146 36.4643 9.90302 33.5 9.90302C30.5357 9.90302 28.5 12.1146 28.5 14.403C28.5 16.6914 30.5357 18.903 33.5 18.903ZM33.5 22.403C38.1944 22.403 42 18.8213 42 14.403C42 9.98474 38.1944 6.40302 33.5 6.40302C28.8056 6.40302 25 9.98474 25 14.403C25 18.8213 28.8056 22.403 33.5 22.403Z" fill="#A4925A"/>
<path fill-rule="evenodd" clip-rule="evenodd" d="M23 28.903H6C5.17157 28.903 4.5 29.5746 4.5 30.403V36.403C4.5 39.9929 7.41015 42.903 11 42.903H18C21.5899 42.903 24.5 39.9929 24.5 36.403V30.403C24.5 29.5746 23.8284 28.903 23 28.903ZM6 25.403C3.23858 25.403 1 27.6416 1 30.403V36.403C1 41.9259 5.47715 46.403 11 46.403H18C23.5228 46.403 28 41.9259 28 36.403V30.403C28 27.6416 25.7614 25.403 23 25.403H6Z" fill="#A4925A"/>
<path fill-rule="evenodd" clip-rule="evenodd" d="M29.2705 43.026C30.1382 43.2716 31.0537 43.403 32 43.403H35C40.5228 43.403 45 38.9259 45 33.403V30.403C45 27.6416 42.7614 25.403 40 25.403H29.0005C30.0894 26.2211 30.8334 27.4735 30.9753 28.903H40C40.8284 28.903 41.5 29.5746 41.5 30.403V33.403C41.5 36.9929 38.5899 39.903 35 39.903H32C31.5607 39.903 31.1315 39.8594 30.7167 39.7764C30.4297 40.9552 29.9339 42.0522 29.2705 43.026Z" fill="#A4925A"/>
</svg>
