<svg width="51" height="51" viewBox="0 0 51 51" fill="none" xmlns="http://www.w3.org/2000/svg">
<g clip-path="url(#clip0_4316_117849)">
<path fill-rule="evenodd" clip-rule="evenodd" d="M24.529 0.782157C25.0684 0.472598 25.7316 0.472598 26.2711 0.782157L43.8711 10.8822C44.4159 11.1948 44.7514 11.7755 44.75 12.4037C44.7487 13.0319 44.4108 13.6112 43.8646 13.9215L26.2646 23.9215C25.7285 24.2261 25.0716 24.2261 24.5355 23.9215L6.93553 13.9215C6.38935 13.6112 6.0514 13.0319 6.05005 12.4037C6.04871 11.7755 6.38417 11.1948 6.92902 10.8822L24.529 0.782157ZM11.3292 12.3924L25.4 20.3872L39.4709 12.3924L25.4 4.31767L11.3292 12.3924Z" fill="#A4925A"/>
<path fill-rule="evenodd" clip-rule="evenodd" d="M47.2844 16.39C47.8259 16.7071 48.1561 17.2899 48.1499 17.9174L47.9499 38.1173C47.9438 38.7338 47.6138 39.3015 47.0812 39.6119L29.5812 49.812C29.0386 50.1282 28.3681 50.1295 27.8243 49.8152C27.2806 49.501 26.9469 48.9194 26.95 48.2914L27.05 27.9914C27.053 27.3676 27.3879 26.7927 27.9289 26.4822L45.5289 16.3822C46.0732 16.0699 46.743 16.0728 47.2844 16.39ZM30.545 29.0163L30.465 45.2457L44.4599 37.0887L44.6198 20.9393L30.545 29.0163Z" fill="#A4925A"/>
<path fill-rule="evenodd" clip-rule="evenodd" d="M3.81364 16.3911C4.35404 16.0737 5.02293 16.0695 5.56727 16.3801L23.2673 26.4801C23.813 26.7915 24.15 27.3716 24.15 28V48.3C24.15 48.9265 23.815 49.5052 23.2718 49.8174C22.7286 50.1295 22.06 50.1274 21.5187 49.812L4.01871 39.6119C3.48612 39.3015 3.15614 38.7338 3.15004 38.1173L2.95004 17.9174C2.94383 17.2907 3.27324 16.7085 3.81364 16.3911ZM6.48004 20.9306L6.64002 37.0887L20.65 45.2545V29.0163L6.48004 20.9306Z" fill="#A4925A"/>
</g>
<defs>
<clipPath id="clip0_4316_117849">
<rect width="50" height="50" fill="white" transform="translate(0.394531 0.403076)"/>
</clipPath>
</defs>
</svg>
