<svg width="50" height="51" viewBox="0 0 50 51" fill="none" xmlns="http://www.w3.org/2000/svg">
<g clip-path="url(#clip0_4316_117810)">
<path fill-rule="evenodd" clip-rule="evenodd" d="M20.9996 12.3066C20.9996 11.3401 21.7832 10.5566 22.7496 10.5566H47.0808C48.0473 10.5566 48.8308 11.3401 48.8308 12.3066V36.2715C48.8308 37.238 48.0473 38.0215 47.0808 38.0215H36.3311C35.3646 38.0215 34.5811 37.238 34.5811 36.2715C34.5811 35.305 35.3646 34.5215 36.3311 34.5215H45.3308V15.8904L29.9487 27.8853C29.3154 28.3791 28.4273 28.3785 27.7946 27.8838L19.3994 21.3191C18.638 20.7238 18.5034 19.6239 19.0988 18.8626C19.6942 18.1012 20.794 17.9666 21.5554 18.562L28.8741 24.2849L41.9908 14.0566H22.7496C21.7832 14.0566 20.9996 13.2731 20.9996 12.3066Z" fill="#A4925A"/>
<path fill-rule="evenodd" clip-rule="evenodd" d="M3.15112 28.3287C-1.96924 19.6286 0.93268 8.42496 9.63275 3.3046C10.731 2.65825 12.1453 3.02755 12.7874 4.12829L18.3517 13.6679C19.0093 14.7953 18.7838 16.2297 17.812 17.101L15.6117 19.0736C14.4494 20.1157 14.1922 21.8371 14.9992 23.1735L19.2614 30.2317C20.0448 31.5291 21.6211 32.1127 23.0606 31.6384L26.679 30.4461C27.4612 30.1884 28.3172 30.5108 28.7349 31.2205L34.5834 41.1579C35.228 42.2531 34.8627 43.6635 33.7675 44.3081C25.0664 49.429 13.8615 46.5268 8.74051 37.8257L3.15112 28.3287ZM10.395 6.97327C4.1568 11.3556 2.23316 19.8686 6.16749 26.5534L11.7569 36.0504C15.6926 42.7377 24.0731 45.1887 30.9346 41.8585L26.4342 34.2119L24.1559 34.9626C21.1662 35.9477 17.8925 34.7355 16.2653 32.0409L12.0031 24.9827C10.327 22.2072 10.8612 18.632 13.2753 16.4676L15.0203 14.9031L10.395 6.97327Z" fill="#A4925A"/>
</g>
<defs>
<clipPath id="clip0_4316_117810">
<rect width="50" height="50" fill="white" transform="translate(0 0.403076)"/>
</clipPath>
</defs>
</svg>
