<svg width="50" height="51" viewBox="0 0 50 51" fill="none" xmlns="http://www.w3.org/2000/svg">
<path fill-rule="evenodd" clip-rule="evenodd" d="M24.0673 5.98081C24.5846 5.70125 25.2076 5.70011 25.7259 5.97779L48.9709 18.4323C49.5386 18.7365 49.8933 19.3279 49.8944 19.9719C49.8955 20.616 49.5427 21.2085 48.9761 21.5146L25.7311 34.07C25.2101 34.3514 24.5821 34.3503 24.0621 34.067L1.01867 21.5116C0.455141 21.2045 0.104875 20.6137 0.10596 19.9719C0.107044 19.3302 0.459307 18.7405 1.02387 18.4353L24.0673 5.98081ZM24.903 9.50763L5.525 19.9811L24.903 30.5393L44.4505 19.9811L24.903 9.50763Z" fill="#A4925A"/>
<path fill-rule="evenodd" clip-rule="evenodd" d="M8.06641 21.9778C9.0329 21.9778 9.81641 22.7613 9.81641 23.7278V29.6845C9.81641 30.651 9.0329 31.4345 8.06641 31.4345C7.09991 31.4345 6.31641 30.651 6.31641 29.6845V23.7278C6.31641 22.7613 7.09991 21.9778 8.06641 21.9778Z" fill="#A4925A"/>
<path fill-rule="evenodd" clip-rule="evenodd" d="M41.2941 23.0947C42.2606 23.0947 43.0441 23.8782 43.0441 24.8447V34.059C43.0441 34.526 42.8574 34.9737 42.5256 35.3023C40.9163 36.8965 36.434 40.066 30.5394 40.9104C24.8084 41.7315 19.918 40.8447 18.0448 40.238C17.1253 39.9402 16.6213 38.9534 16.9191 38.0339C17.2169 37.1144 18.2037 36.6105 19.1232 36.9083C20.5069 37.3564 24.8591 38.1885 30.043 37.4458C34.477 36.8106 37.9758 34.5959 39.5441 33.2833V24.8447C39.5441 23.8782 40.3276 23.0947 41.2941 23.0947Z" fill="#A4925A"/>
<path d="M15.4719 34.0378C15.4719 35.7052 14.1202 37.057 12.4527 37.057C10.7853 37.057 9.43359 35.7052 9.43359 34.0378C9.43359 32.3704 10.7853 31.0187 12.4527 31.0187C14.1202 31.0187 15.4719 32.3704 15.4719 34.0378Z" fill="#A4925A"/>
<path fill-rule="evenodd" clip-rule="evenodd" d="M26.5036 17.3818C26.9919 18.2159 26.7116 19.2879 25.8775 19.7762L14.2178 26.6021V32.2078C14.2178 33.1743 13.4343 33.9578 12.4678 33.9578C11.5013 33.9578 10.7178 33.1743 10.7178 32.2078V25.5988C10.7178 24.9773 11.0473 24.4025 11.5836 24.0885L24.1093 16.7557C24.9434 16.2674 26.0154 16.5477 26.5036 17.3818Z" fill="#A4925A"/>
<path fill-rule="evenodd" clip-rule="evenodd" d="M12.444 33.7667C13.3906 33.9614 14.0002 34.8866 13.8055 35.8333L12.2003 43.6382C12.0056 44.5849 11.0803 45.1945 10.1336 44.9998C9.18696 44.8051 8.57736 43.8798 8.77207 42.9332L10.3773 35.1282C10.572 34.1816 11.4973 33.572 12.444 33.7667Z" fill="#A4925A"/>
<path fill-rule="evenodd" clip-rule="evenodd" d="M12.4623 33.7667C11.5156 33.9614 10.906 34.8866 11.1007 35.8333L12.7059 43.6382C12.9006 44.5849 13.8259 45.1945 14.7726 44.9998C15.7193 44.8051 16.3289 43.8798 16.1342 42.9332L14.529 35.1282C14.3343 34.1816 13.409 33.572 12.4623 33.7667Z" fill="#A4925A"/>
</svg>
