<svg width="24" height="24" viewBox="0 0 24 24" fill="none" xmlns="http://www.w3.org/2000/svg">
<path fill-rule="evenodd" clip-rule="evenodd" d="M5 7C5 6.44772 5.44772 6 6 6H17C17.5523 6 18 6.44772 18 7C18 7.55228 17.5523 8 17 8H6C5.44772 8 5 7.55228 5 7Z" fill="#222222"/>
<path fill-rule="evenodd" clip-rule="evenodd" d="M5 12C5 11.4477 5.44772 11 6 11H17C17.5523 11 18 11.4477 18 12C18 12.5523 17.5523 13 17 13H6C5.44772 13 5 12.5523 5 12Z" fill="#222222"/>
<path fill-rule="evenodd" clip-rule="evenodd" d="M5 17C5 16.4477 5.44772 16 6 16H17C17.5523 16 18 16.4477 18 17C18 17.5523 17.5523 18 17 18H6C5.44772 18 5 17.5523 5 17Z" fill="#222222"/>
</svg>
