<svg width="51" height="51" viewBox="0 0 51 51" fill="none" xmlns="http://www.w3.org/2000/svg">
<g clip-path="url(#clip0_4316_117782)">
<path fill-rule="evenodd" clip-rule="evenodd" d="M4.80688 2.45406C4.80688 1.48756 5.59039 0.704056 6.55688 0.704056H45.0996C46.0661 0.704056 46.8496 1.48756 46.8496 2.45406V35.5052C46.8496 36.4717 46.0661 37.2552 45.0996 37.2552C44.1331 37.2552 43.3496 36.4717 43.3496 35.5052V4.20406H8.30688V45.3305C8.30688 46.297 7.52338 47.0805 6.55688 47.0805C5.59039 47.0805 4.80688 46.297 4.80688 45.3305V2.45406Z" fill="#A4925A"/>
<path fill-rule="evenodd" clip-rule="evenodd" d="M4.80688 45.3151C4.80688 47.9588 6.95008 50.102 9.59385 50.102H45.0996C46.0661 50.102 46.8496 49.3185 46.8496 48.352C46.8496 47.3855 46.0661 46.602 45.0996 46.602H9.59385C8.88308 46.602 8.30688 46.0258 8.30688 45.3151C8.30688 44.6043 8.88308 44.0281 9.59385 44.0281H45.0996C46.0661 44.0281 46.8496 43.2446 46.8496 42.2781C46.8496 41.3116 46.0661 40.5281 45.0996 40.5281H9.59385C6.95008 40.5281 4.80688 42.6713 4.80688 45.3151Z" fill="#A4925A"/>
<path d="M15.6841 11.2854V2.59329H22.5847V11.2854L19.1344 8.1838L15.6841 11.2854Z" fill="#A4925A"/>
<path fill-rule="evenodd" clip-rule="evenodd" d="M13.9341 2.59329C13.9341 1.62679 14.7176 0.843292 15.6841 0.843292H22.5847C23.5512 0.843292 24.3347 1.62679 24.3347 2.59329V11.2854C24.3347 11.9763 23.9282 12.6026 23.2972 12.8838C22.6661 13.1651 21.9286 13.0488 21.4148 12.5869L19.1344 10.5369L16.854 12.5869C16.3402 13.0488 15.6027 13.1651 14.9716 12.8838C14.3406 12.6026 13.9341 11.9763 13.9341 11.2854V2.59329ZM17.4341 4.34329V7.35915L17.9645 6.88235C18.6298 6.28429 19.639 6.28429 20.3043 6.88235L20.8347 7.35914V4.34329H17.4341Z" fill="#A4925A"/>
<path fill-rule="evenodd" clip-rule="evenodd" d="M13.9341 18.152C13.9341 16.6332 15.1653 15.402 16.6841 15.402H34.9725C36.4913 15.402 37.7225 16.6332 37.7225 18.152V28.9657C37.7225 30.4845 36.4913 31.7157 34.9725 31.7157H16.6841C15.1653 31.7157 13.9341 30.4845 13.9341 28.9657V18.152ZM17.4341 18.902V28.2157H34.2225V18.902H17.4341Z" fill="#A4925A"/>
</g>
<defs>
<clipPath id="clip0_4316_117782">
<rect width="50" height="50" fill="white" transform="translate(0.828125 0.403015)"/>
</clipPath>
</defs>
</svg>
