<svg width="51" height="51" viewBox="0 0 51 51" fill="none" xmlns="http://www.w3.org/2000/svg">
<g clip-path="url(#clip0_4316_117767)">
<path fill-rule="evenodd" clip-rule="evenodd" d="M6.13135 12.2445C7.09785 12.2445 7.88135 13.028 7.88135 13.9945L7.88135 36.6982C7.88135 37.6647 7.09785 38.4482 6.13135 38.4482C5.16485 38.4482 4.38135 37.6647 4.38135 36.6982L4.38135 13.9945C4.38135 13.028 5.16485 12.2445 6.13135 12.2445Z" fill="#A4925A"/>
<path fill-rule="evenodd" clip-rule="evenodd" d="M44.9978 30.7187C45.9643 30.7187 46.7478 31.5022 46.7478 32.4687L46.7478 47.9093C46.7478 48.8758 45.9643 49.6593 44.9978 49.6593C44.0313 49.6593 43.2478 48.8758 43.2478 47.9093L43.2478 32.4687C43.2478 31.5022 44.0313 30.7187 44.9978 30.7187Z" fill="#A4925A"/>
<path fill-rule="evenodd" clip-rule="evenodd" d="M0.802246 48.4835C0.802246 47.517 1.58575 46.7335 2.55225 46.7335H47.252C48.2185 46.7335 49.002 47.517 49.002 48.4835C49.002 49.45 48.2185 50.2335 47.252 50.2335H2.55225C1.58575 50.2335 0.802246 49.45 0.802246 48.4835Z" fill="#A4925A"/>
<path fill-rule="evenodd" clip-rule="evenodd" d="M29.3918 12.2445C30.3583 12.2445 31.1418 13.028 31.1418 13.9945L31.1418 19.373C31.1418 20.3395 30.3583 21.123 29.3918 21.123C28.4253 21.123 27.6418 20.3395 27.6418 19.373L27.6418 13.9945C27.6418 13.028 28.4253 12.2445 29.3918 12.2445Z" fill="#A4925A"/>
<path fill-rule="evenodd" clip-rule="evenodd" d="M16.6503 2.43751C17.2794 1.95554 18.154 1.9566 18.782 2.44008L33.9299 14.1019C34.6957 14.6915 34.8386 15.7902 34.249 16.5561C33.6594 17.3219 32.5606 17.4648 31.7948 16.8752L17.7118 6.03323L3.87996 16.6288C3.1127 17.2165 2.01426 17.071 1.42652 16.3037C0.838784 15.5365 0.984313 14.438 1.75157 13.8503L16.6503 2.43751Z" fill="#A4925A"/>
<path fill-rule="evenodd" clip-rule="evenodd" d="M32.5502 20.8154C33.1793 20.3335 34.0539 20.3345 34.6819 20.818L49.8298 32.4798C50.5956 33.0694 50.7385 34.1682 50.1489 34.934C49.5593 35.6999 48.4605 35.8427 47.6947 35.2531L33.6117 24.4112L19.7799 35.0067C19.0126 35.5944 17.9142 35.4489 17.3264 34.6817C16.7387 33.9144 16.8842 32.816 17.6515 32.2282L32.5502 20.8154Z" fill="#A4925A"/>
<path fill-rule="evenodd" clip-rule="evenodd" d="M8.65234 38.4482C6.42743 38.4482 4.62378 40.2518 4.62378 42.4767C4.62378 44.6575 6.35715 46.4342 8.52043 46.5032C8.53604 46.5037 8.55159 46.5044 8.56709 46.5053H16.262C17.6595 46.5053 18.7925 45.3724 18.7925 43.9749C18.7925 42.5774 17.6596 41.4445 16.2621 41.4445C15.773 41.4445 15.3213 41.5815 14.9371 41.8184C14.4976 42.0895 13.9608 42.1525 13.4704 41.9908C12.98 41.8291 12.5861 41.459 12.3941 40.9797C11.7985 39.4931 10.3453 38.4482 8.65234 38.4482ZM1.12378 42.4767C1.12378 38.3188 4.49443 34.9482 8.65234 34.9482C11.1905 34.9482 13.4326 36.2038 14.7957 38.1245C15.2657 38.0069 15.7571 37.9445 16.2621 37.9445C19.5926 37.9445 22.2925 40.6444 22.2925 43.9749C22.2925 47.3054 19.5926 50.0053 16.2621 50.0053H8.4646C8.40568 50.0053 8.34745 50.0024 8.29003 49.9967C4.29981 49.8071 1.12378 46.5132 1.12378 42.4767Z" fill="#A4925A"/>
<path fill-rule="evenodd" clip-rule="evenodd" d="M31.3169 37.3665V46.6465H36.1609V37.3665H31.3169ZM28.3169 33.8665C28.0408 33.8665 27.8169 34.0903 27.8169 34.3665V49.6465C27.8169 49.9226 28.0408 50.1465 28.3169 50.1465H39.1609C39.437 50.1465 39.6609 49.9226 39.6609 49.6465V34.3665C39.6609 34.0903 39.437 33.8665 39.1609 33.8665H28.3169Z" fill="#A4925A"/>
<path fill-rule="evenodd" clip-rule="evenodd" d="M16.3176 16.9721V22.6689H19.206V16.9721H16.3176ZM13.3176 13.4721C13.0415 13.4721 12.8176 13.6959 12.8176 13.9721V25.6689C12.8176 25.9451 13.0415 26.1689 13.3176 26.1689H22.206C22.4821 26.1689 22.706 25.9451 22.706 25.6689V13.9721C22.706 13.6959 22.4821 13.4721 22.206 13.4721H13.3176Z" fill="#A4925A"/>
<path fill-rule="evenodd" clip-rule="evenodd" d="M9.03296 0.540344C9.99946 0.540344 10.783 1.32385 10.783 2.29034L10.783 9.74777C10.783 10.7143 9.99946 11.4978 9.03296 11.4978C8.06646 11.4978 7.28296 10.7143 7.28296 9.74777L7.28296 2.29034C7.28296 1.32385 8.06646 0.540344 9.03296 0.540344Z" fill="#A4925A"/>
</g>
<defs>
<clipPath id="clip0_4316_117767">
<rect width="50" height="50" fill="white" transform="translate(0.657227 0.403015)"/>
</clipPath>
</defs>
</svg>
