<svg width="51" height="51" viewBox="0 0 51 51" fill="none" xmlns="http://www.w3.org/2000/svg">
<path fill-rule="evenodd" clip-rule="evenodd" d="M28.2999 39C29.4999 38.2 30.2999 36.8 30.2999 35.2C30.2999 32.7 28.2999 30.7 25.7999 30.7C23.2999 30.7 21.2999 32.7 21.2999 35.2C21.2999 36.8 22.0999 38.2 23.2999 39C20.2999 40.3 18.0999 43.8 18.0999 47.9H33.3999C33.3999 43.8 31.2999 40.3 28.2999 39Z" fill="#A4925A"/>
<path fill-rule="evenodd" clip-rule="evenodd" d="M38.2999 35C39.2999 34.4 39.8999 33.3 39.8999 32C39.8999 30 38.2999 28.4 36.2999 28.4C34.2999 28.4 32.6999 30 32.6999 32C32.6999 33.2 33.2999 34.3 34.2999 35C33.0999 35.5 32.0999 36.4 31.3999 37.6C31.4999 37.7 31.5999 37.8 31.7999 37.9C32.1999 38.3 32.8999 38.9 33.4999 39.7C34.0999 40.5 34.3999 41.2 34.5999 41.7C34.6999 41.8 34.6999 41.9 34.7999 42H42.2999C42.3999 38.8 40.6999 36 38.2999 35Z" fill="#A4925A"/>
<path fill-rule="evenodd" clip-rule="evenodd" d="M13.2 35C12.2 34.4 11.6 33.3 11.6 32C11.6 30 13.2 28.4 15.2 28.4C17.2 28.4 18.8 30 18.8 32C18.8 33.2 18.2 34.3 17.2 35C18.4 35.5 19.4 36.4 20.1 37.6C20 37.7 19.9 37.8 19.7 37.9C19.3 38.3 18.6 38.9 18 39.7C17.4 40.5 17.1 41.2 16.9 41.7C16.8 41.8 16.8 41.9 16.7 42H9.19995C9.19995 38.8 10.9 36 13.2 35Z" fill="#A4925A"/>
<path fill-rule="evenodd" clip-rule="evenodd" d="M25.8 21.4C23.6 21.4 21.7 23 21.2 25C21 25.9 20 26.5 19.1 26.3C18.2 26.1 17.6 25.1 17.8 24.2C18.6 20.6 21.9 17.9 25.8 17.9C29.7 17.9 32.9 20.6 33.8 24.2C34 25.1 33.4 26.1 32.5 26.3C31.6 26.5 30.6 25.9 30.4 25C29.9 22.9 28.1 21.4 25.8 21.4Z" fill="#A4925A"/>
<path d="M6.9999 34.8L4.6999 28.9L10.1999 26.9C10.8999 26.7 11.2999 26.1 11.2999 25.4C11.2999 25.4 11.2999 25.2 11.2999 24.8C11.2999 24.5 11.3999 24 11.3999 23.6C11.3999 23.4 11.4999 23 11.5999 22.7C11.5999 22.6 11.6999 22.4 11.6999 22.3V22.2C11.8999 21.5 11.6999 20.8 11.0999 20.3L6.4999 16.5L11.3999 10.5L15.5999 13.8C16.1999 14.3 16.9999 14.3 17.5999 13.9C17.5999 13.9 17.6999 13.9 17.7999 13.8C18.0999 13.6 18.7999 13.2 19.1999 13C19.4999 12.8 19.8999 12.7 20.2999 12.5C20.4999 12.4 20.5999 12.4 20.7999 12.3H20.8999C21.5999 12 22.0999 11.4 22.0999 10.7V5.70001H29.8999L29.9999 10.7C29.9999 11.4 30.4999 12.1 31.0999 12.3C31.1999 12.4 31.9999 12.7 32.3999 12.9C32.6999 13.1 33.0999 13.3 33.3999 13.5C33.5999 13.6 33.6999 13.7 33.7999 13.8C33.8999 13.9 33.9999 13.9 33.9999 13.9C34.5999 14.3 35.3999 14.3 35.9999 13.8L40.1999 10.5L44.9999 16.6L40.4999 20.3C39.9999 20.7 39.7999 21.4 39.8999 22.1C39.8999 22.1 39.8999 22.2 39.8999 22.3C39.8999 22.5 39.9999 22.8 40.0999 23.1C40.1999 23.4 40.1999 23.7 40.1999 23.9C40.1999 24.2 40.2999 24.7 40.2999 25.1C40.2999 25.5 40.3999 25.8 40.3999 25.8C40.4999 26.5 40.8999 27.1 41.4999 27.3L46.5999 29.2L44.3999 34.9C44.0999 35.8 44.4999 36.8 45.3999 37.2C46.2999 37.5 47.2999 37.1 47.6999 36.2L50.4999 28.8C50.6999 28.4 50.5999 27.9 50.4999 27.5C50.3999 27.1 49.9999 26.7 49.4999 26.6L42.6999 24.1L42.0999 25.7L43.7999 25.6C43.7999 25.6 43.6999 24.3 43.5999 23.6C43.4999 23.1 43.3999 22.6 43.3999 22.2C43.2999 21.8 43.1999 21.5 43.1999 21.5L41.4999 21.9L42.5999 23.2L48.3999 18.4C49.0999 17.8 49.1999 16.7 48.6999 16L41.7999 7.20001C41.4999 6.80001 41.0999 6.60001 40.5999 6.50001C40.0999 6.40001 39.6999 6.60001 39.2999 6.90001L33.8999 11L34.9999 12.4L35.8999 10.9C35.8999 10.9 34.8999 10.3 34.0999 9.80001C33.6999 9.60001 33.1999 9.40001 32.8999 9.20001C32.5999 9.10001 32.3999 9.00001 32.2999 9.00001L31.6999 10.6H33.3999L33.2999 3.80001C33.2999 2.80001 32.4999 2.10001 31.5999 2.10001H20.2999C19.7999 2.10001 19.3999 2.30001 19.0999 2.60001C18.7999 2.90001 18.5999 3.40001 18.5999 3.80001V10.5H20.3999L19.6999 9.00001C19.6999 9.00001 19.3999 9.10001 18.9999 9.30001C18.5999 9.50001 18.0999 9.70001 17.5999 9.90001C17.1999 10.1 16.7999 10.4 16.3999 10.6C16.0999 10.8 15.7999 11 15.7999 11L16.6999 12.5L17.7999 11.1L12.2999 6.70001C11.4999 6.10001 10.4999 6.20001 9.8999 7.00001L2.8999 15.8C2.2999 16.5 2.3999 17.6 3.1999 18.3L8.9999 23L10.0999 21.6L8.3999 21.1C8.3999 21.1 8.2999 21.4 8.1999 21.8C8.0999 22.2 7.9999 22.7 7.8999 23.3C7.7999 24.1 7.7999 25.2 7.7999 25.2L9.4999 25.3L8.9999 23.6L1.7999 26.2C1.3999 26.4 0.999902 26.7 0.799902 27.1C0.599902 27.5 0.599902 28 0.799902 28.5L3.7999 36C4.1999 36.9 5.1999 37.3 6.0999 37C6.9999 36.7 7.3999 35.7 6.9999 34.8Z" fill="#A4925A"/>
</svg>
