<svg width="57" height="56" viewBox="0 0 57 56" fill="none" xmlns="http://www.w3.org/2000/svg">
<path d="M46.25 4.40296H8.75C7.75544 4.40296 6.80161 4.79805 6.09835 5.50131C5.39509 6.20457 5 7.1584 5 8.15296L5 45.653C5 46.6475 5.39509 47.6013 6.09835 48.3046C6.80161 49.0079 7.75544 49.403 8.75 49.403H46.25C47.2446 49.403 48.1984 49.0079 48.9016 48.3046C49.6049 47.6013 50 46.6475 50 45.653V8.15296C50 7.1584 49.6049 6.20457 48.9016 5.50131C48.1984 4.79805 47.2446 4.40296 46.25 4.40296V4.40296ZM46.25 44.7155C46.25 44.9641 46.1512 45.2026 45.9754 45.3784C45.7996 45.5542 45.5611 45.653 45.3125 45.653H9.6875C9.43886 45.653 9.2004 45.5542 9.02459 45.3784C8.84877 45.2026 8.75 44.9641 8.75 44.7155V9.09046C8.75 8.84182 8.84877 8.60336 9.02459 8.42755C9.2004 8.25173 9.43886 8.15296 9.6875 8.15296H45.3125C45.4355 8.15146 45.5574 8.17571 45.6704 8.22415C45.7834 8.27259 45.885 8.34414 45.9688 8.43421C46.0588 8.51792 46.1304 8.61956 46.1788 8.73258C46.2272 8.8456 46.2515 8.96751 46.25 9.09046V44.7155Z" fill="#A4925A"/>
<path d="M39.6921 11.9031H15.3171C14.0227 11.9031 12.9734 12.9524 12.9734 14.2469V18.9344C12.9734 20.2288 14.0227 21.2781 15.3171 21.2781H39.6921C40.9866 21.2781 42.0359 20.2288 42.0359 18.9344V14.2469C42.0359 12.9524 40.9866 11.9031 39.6921 11.9031Z" fill="#A4925A"/>
<path d="M24.6921 25.0278H14.3796C13.603 25.0278 12.9734 25.6574 12.9734 26.4341V27.3716C12.9734 28.1482 13.603 28.7778 14.3796 28.7778H24.6921C25.4688 28.7778 26.0984 28.1482 26.0984 27.3716V26.4341C26.0984 25.6574 25.4688 25.0278 24.6921 25.0278Z" fill="#A4925A"/>
<path d="M24.6921 31.5906H14.3796C13.603 31.5906 12.9734 32.2202 12.9734 32.9969V33.9344C12.9734 34.711 13.603 35.3406 14.3796 35.3406H24.6921C25.4688 35.3406 26.0984 34.711 26.0984 33.9344V32.9969C26.0984 32.2202 25.4688 31.5906 24.6921 31.5906Z" fill="#A4925A"/>
<path d="M24.6921 38.153H14.3796C13.603 38.153 12.9734 38.7826 12.9734 39.5592V40.4967C12.9734 41.2734 13.603 41.903 14.3796 41.903H24.6921C25.4688 41.903 26.0984 41.2734 26.0984 40.4967V39.5592C26.0984 38.7826 25.4688 38.153 24.6921 38.153Z" fill="#A4925A"/>
<path d="M40.625 38.153H30.3125C29.5358 38.153 28.9062 38.7826 28.9062 39.5592V40.4967C28.9062 41.2734 29.5358 41.903 30.3125 41.903H40.625C41.4017 41.903 42.0313 41.2734 42.0313 40.4967V39.5592C42.0313 38.7826 41.4017 38.153 40.625 38.153Z" fill="#A4925A"/>
<path d="M40.625 25.028H30.3125C29.5358 25.028 28.9062 25.6576 28.9062 26.4342V27.3717C28.9062 28.1484 29.5358 28.778 30.3125 28.778H40.625C41.4017 28.778 42.0313 28.1484 42.0313 27.3717V26.4342C42.0313 25.6576 41.4017 25.028 40.625 25.028Z" fill="#A4925A"/>
<path d="M40.625 31.5905H30.3125C29.5358 31.5905 28.9062 32.2201 28.9062 32.9967V33.9342C28.9062 34.7109 29.5358 35.3405 30.3125 35.3405H40.625C41.4017 35.3405 42.0313 34.7109 42.0313 33.9342V32.9967C42.0313 32.2201 41.4017 31.5905 40.625 31.5905Z" fill="#A4925A"/>
</svg>
