<svg width="50" height="51" viewBox="0 0 50 51" fill="none" xmlns="http://www.w3.org/2000/svg">
<path fill-rule="evenodd" clip-rule="evenodd" d="M3.75 7.15308V39.7707C3.75 40.9193 4.1735 41.608 4.65017 42.0535C5.14543 42.5163 5.75366 42.7601 6.15358 42.8442H36.7644C36.1136 41.7163 35.75 40.4303 35.75 39.1678V7.15308H3.75ZM42.5 42.8442C43.4007 42.8442 44.0168 42.5129 44.4427 41.9896C44.9003 41.4274 45.25 40.4964 45.25 39.1678V11.9766H42C41.0335 11.9766 40.25 11.1931 40.25 10.2266C40.25 9.26011 41.0335 8.47661 42 8.47661H46C47.5188 8.47661 48.75 9.70782 48.75 11.2266V39.1678C48.75 41.0745 48.2497 42.8567 47.1573 44.1989C46.0332 45.58 44.3993 46.3442 42.5 46.3442H6.07494C5.94696 46.3442 5.79581 46.3357 5.6286 46.3068C4.66946 46.1408 3.3593 45.6375 2.26052 44.6107C1.11246 43.5379 0.25 41.9381 0.25 39.7707V6.40241C0.25 4.88211 1.48274 3.65308 3 3.65308H36.5C38.0188 3.65308 39.25 4.88429 39.25 6.40308V39.1678C39.25 41.1398 40.8579 42.8442 42.5 42.8442Z" fill="#A4925A"/>
<path fill-rule="evenodd" clip-rule="evenodd" d="M7 12.6531C7 11.6866 7.7835 10.9031 8.75 10.9031H29.25C30.2165 10.9031 31 11.6866 31 12.6531C31 13.6196 30.2165 14.4031 29.25 14.4031H8.75C7.7835 14.4031 7 13.6196 7 12.6531Z" fill="#A4925A"/>
<path fill-rule="evenodd" clip-rule="evenodd" d="M20 20.6531C20 19.6866 20.7835 18.9031 21.75 18.9031H29.25C30.2165 18.9031 31 19.6866 31 20.6531C31 21.6196 30.2165 22.4031 29.25 22.4031H21.75C20.7835 22.4031 20 21.6196 20 20.6531Z" fill="#A4925A"/>
<path fill-rule="evenodd" clip-rule="evenodd" d="M20 28.6531C20 27.6866 20.7835 26.9031 21.75 26.9031H29.25C30.2165 26.9031 31 27.6866 31 28.6531C31 29.6196 30.2165 30.4031 29.25 30.4031H21.75C20.7835 30.4031 20 29.6196 20 28.6531Z" fill="#A4925A"/>
<path fill-rule="evenodd" clip-rule="evenodd" d="M20 36.6531C20 35.6866 20.7835 34.9031 21.75 34.9031H29.25C30.2165 34.9031 31 35.6866 31 36.6531C31 37.6196 30.2165 38.4031 29.25 38.4031H21.75C20.7835 38.4031 20 37.6196 20 36.6531Z" fill="#A4925A"/>
<path d="M16 23.4031C16 25.6122 14.2091 27.4031 12 27.4031C9.79086 27.4031 8 25.6122 8 23.4031C8 21.1939 9.79086 19.4031 12 19.4031C14.2091 19.4031 16 21.1939 16 23.4031Z" fill="#A4925A"/>
<path d="M7 31.4031C7 30.2985 7.89543 29.4031 9 29.4031H15C16.1046 29.4031 17 30.2985 17 31.4031V33.4031C17 36.1645 14.7614 38.4031 12 38.4031V38.4031C9.23858 38.4031 7 36.1645 7 33.4031V31.4031Z" fill="#A4925A"/>
</svg>
