<svg width="51" height="51" viewBox="0 0 51 51" fill="none" xmlns="http://www.w3.org/2000/svg">
<path d="M25.4929 3.56864C23.3442 3.57366 21.2848 4.47542 19.7654 6.07662C18.246 7.67782 17.3903 9.84807 17.3855 12.1125V18.0552C17.3855 18.5588 17.5753 19.0417 17.9132 19.3978C18.2511 19.7538 18.7093 19.9539 19.1872 19.9539C19.665 19.9539 20.1232 19.7538 20.4611 19.3978C20.799 19.0417 20.9888 18.5588 20.9888 18.0552V12.1125C20.9888 10.8536 21.4633 9.64632 22.308 8.75616C23.1527 7.866 24.2984 7.36591 25.4929 7.36591C26.6875 7.36591 27.8332 7.866 28.6778 8.75616C29.5225 9.64632 29.9971 10.8536 29.9971 12.1125V22.555C29.9971 23.8139 29.5225 25.0212 28.6778 25.9114C27.8332 26.8015 26.6875 27.3016 25.4929 27.3016C25.0151 27.3016 24.5569 27.5016 24.219 27.8577C23.8811 28.2138 23.6913 28.6967 23.6913 29.2002C23.6913 29.7038 23.8811 30.1867 24.219 30.5428C24.5569 30.8988 25.0151 31.0989 25.4929 31.0989C27.6417 31.0939 29.7011 30.1921 31.2205 28.5909C32.7399 26.9897 33.5956 24.8194 33.6004 22.555V12.1125C33.5956 9.84807 32.7399 7.67782 31.2205 6.07662C29.7011 4.47542 27.6417 3.57366 25.4929 3.56864V3.56864Z" fill="#A4925A"/>
<path d="M31.7987 32.295C31.3209 32.295 30.8626 32.4951 30.5248 32.8511C30.1869 33.2072 29.9971 33.6901 29.9971 34.1937V38.6934C29.9971 39.9523 29.5225 41.1596 28.6778 42.0498C27.8332 42.9399 26.6875 43.44 25.4929 43.44C24.2984 43.44 23.1527 42.9399 22.308 42.0498C21.4633 41.1596 20.9888 39.9523 20.9888 38.6934V29.2002C20.9888 27.9414 21.4633 26.734 22.308 25.8439C23.1527 24.9537 24.2984 24.4536 25.4929 24.4536C25.9708 24.4536 26.429 24.2536 26.7669 23.8975C27.1048 23.5415 27.2946 23.0586 27.2946 22.555C27.2946 22.0515 27.1048 21.5685 26.7669 21.2125C26.429 20.8564 25.9708 20.6564 25.4929 20.6564C23.3442 20.6614 21.2848 21.5632 19.7654 23.1644C18.246 24.7656 17.3903 26.9358 17.3855 29.2002V38.6934C17.3855 40.9594 18.2397 43.1326 19.7601 44.7348C21.2806 46.3371 23.3427 47.2373 25.4929 47.2373C27.6432 47.2373 29.7053 46.3371 31.2258 44.7348C32.7462 43.1326 33.6004 40.9594 33.6004 38.6934V34.1937C33.6004 33.6901 33.4106 33.2072 33.0727 32.8511C32.7348 32.4951 32.2766 32.295 31.7987 32.295V32.295Z" fill="#A4925A"/>
<path d="M13.3155 15.6819L10.9733 14.258C10.5576 14.0062 10.064 13.9388 9.60114 14.0705C9.13825 14.2023 8.74399 14.5224 8.50507 14.9605C8.26616 15.3986 8.20217 15.9187 8.32718 16.4065C8.4522 16.8943 8.75597 17.3098 9.17168 17.5616L11.5138 18.9856C11.9275 19.2331 12.4173 19.2981 12.8764 19.1665C13.3354 19.0349 13.7264 18.7173 13.9641 18.2831C14.0839 18.0675 14.1623 17.8291 14.1945 17.5816C14.2268 17.3341 14.2124 17.0823 14.1521 16.8406C14.0919 16.599 13.987 16.3722 13.8434 16.1734C13.6998 15.9746 13.5204 15.8076 13.3155 15.6819V15.6819Z" fill="#A4925A"/>
<path d="M11.0798 26.3523C11.5576 26.3523 12.0159 26.1522 12.3538 25.7962C12.6917 25.4401 12.8815 24.9572 12.8815 24.4536C12.8815 23.9501 12.6917 23.4672 12.3538 23.1111C12.0159 22.755 11.5576 22.555 11.0798 22.555H8.37734C7.89951 22.555 7.44125 22.755 7.10338 23.1111C6.7655 23.4672 6.57568 23.9501 6.57568 24.4536C6.57568 24.9572 6.7655 25.4401 7.10338 25.7962C7.44125 26.1522 7.89951 26.3523 8.37734 26.3523H11.0798Z" fill="#A4925A"/>
<path d="M11.5138 29.9216L9.17169 31.3456C8.75598 31.5974 8.4522 32.0128 8.32718 32.5007C8.20217 32.9885 8.26616 33.5086 8.50507 33.9467C8.74399 34.3848 9.13826 34.7049 9.60115 34.8367C10.064 34.9684 10.5576 34.901 10.9733 34.6492L13.3155 33.2252C13.7312 32.9734 14.035 32.558 14.16 32.0702C14.285 31.5824 14.221 31.0622 13.9821 30.6241C13.7432 30.186 13.3489 29.8659 12.886 29.7342C12.4231 29.6024 11.9296 29.6698 11.5138 29.9216V29.9216Z" fill="#A4925A"/>
<path d="M38.574 19.2324C38.8896 19.2347 39.2002 19.1496 39.4748 18.9856L41.8169 17.5616C42.2326 17.3098 42.5364 16.8943 42.6614 16.4065C42.7864 15.9187 42.7225 15.3986 42.4835 14.9605C42.2446 14.5224 41.8504 14.2023 41.3875 14.0705C40.9246 13.9388 40.431 14.0062 40.0153 14.258L37.6732 15.682C37.3261 15.8892 37.0541 16.212 36.8999 16.5997C36.7456 16.9874 36.7179 17.4181 36.8209 17.8243C36.924 18.2304 37.152 18.589 37.4693 18.8438C37.7865 19.0987 38.1751 19.2354 38.574 19.2324V19.2324Z" fill="#A4925A"/>
<path d="M42.6074 22.555H39.9049C39.4271 22.555 38.9688 22.7551 38.631 23.1111C38.2931 23.4672 38.1033 23.9501 38.1033 24.4537C38.1033 24.9572 38.2931 25.4402 38.631 25.7962C38.9688 26.1523 39.4271 26.3523 39.9049 26.3523H42.6074C43.0852 26.3523 43.5435 26.1523 43.8814 25.7962C44.2192 25.4402 44.4091 24.9572 44.4091 24.4537C44.4091 23.9501 44.2192 23.4672 43.8814 23.1111C43.5435 22.7551 43.0852 22.555 42.6074 22.555Z" fill="#A4925A"/>
<path d="M41.8145 31.3456L39.4724 29.9216C39.0567 29.6698 38.5631 29.6024 38.1002 29.7342C37.6373 29.8659 37.243 30.186 37.0041 30.6241C36.7652 31.0622 36.7012 31.5824 36.8262 32.0702C36.9512 32.558 37.255 32.9734 37.6707 33.2252L40.0129 34.6492C40.4286 34.901 40.9222 34.9684 41.385 34.8367C41.8479 34.7049 42.2422 34.3848 42.4811 33.9467C42.72 33.5086 42.784 32.9885 42.659 32.5007C42.534 32.0128 42.2302 31.5974 41.8145 31.3456V31.3456Z" fill="#A4925A"/>
</svg>
