<svg width="50" height="51" viewBox="0 0 50 51" fill="none" xmlns="http://www.w3.org/2000/svg">
<g clip-path="url(#clip0_4316_117762)">
<path fill-rule="evenodd" clip-rule="evenodd" d="M11.9731 2.22078C11.9731 1.25429 12.7566 0.470789 13.7231 0.470779C14.5487 0.470771 15.346 0.829002 15.965 1.18618C16.6377 1.57432 17.3477 2.10876 18.0535 2.73629C19.4678 3.99393 20.988 5.73553 22.2948 7.75015C23.8621 10.1665 24.918 12.3877 25.5756 14.2412C26.2076 16.0225 26.5156 17.5874 26.4712 18.696V46.7137C26.4712 47.6802 25.6877 48.4637 24.7212 48.4637C23.7547 48.4637 22.9712 47.6802 22.9712 46.7137C22.9712 44.3929 21.8602 41.3983 19.497 38.637C16.9211 35.6272 14.7314 34.1968 13.0993 33.5741C12.4212 33.3153 11.9731 32.6649 11.9731 31.9391V2.22078ZM22.9712 37.3753V18.6571C22.9712 18.6279 22.9719 18.5988 22.9734 18.5697C22.9958 18.1209 22.8538 17.037 22.2771 15.4116C21.7167 13.8322 20.7863 11.8561 19.3584 9.65482C18.2131 7.88924 16.8953 6.38998 15.7277 5.35181C15.6413 5.27499 15.5564 5.20129 15.4731 5.1307V30.7992C17.5099 31.812 19.763 33.5651 22.1561 36.3612C22.4409 36.694 22.7127 37.0324 22.9712 37.3753Z" fill="#A4925A"/>
<path fill-rule="evenodd" clip-rule="evenodd" d="M14.7236 14.9279C14.7714 15.8932 14.0276 16.7145 13.0623 16.7623C9.73923 16.9268 6.42218 17.8693 4.52124 18.5558V43.2874C7.34674 42.5074 11.5235 41.7571 15.3523 42.2778C19.5964 42.8549 23.1426 44.189 25.0163 45.0906C27.6272 43.9726 32.7222 42.2618 37.4523 42.2618C40.7356 42.2618 43.5166 42.7371 45.4787 43.2565V18.7042C44.8283 18.3897 43.8078 18.0019 42.5537 17.8204C41.5972 17.6819 40.934 16.7943 41.0724 15.8378C41.2108 14.8812 42.0985 14.218 43.055 14.3565C45.5682 14.7201 47.4889 15.7179 48.2662 16.2901C48.7142 16.6199 48.9787 17.1431 48.9787 17.6994V45.6899C48.9787 46.2866 48.6747 46.8421 48.1721 47.1638C47.6696 47.4855 47.0378 47.5289 46.4959 47.2791C45.5352 46.8361 42.1351 45.7618 37.4523 45.7618C32.9118 45.7618 27.7219 47.6587 25.7159 48.6127C25.2015 48.8574 24.6002 48.8364 24.1041 48.5564C22.9796 47.9217 19.3892 46.359 14.8807 45.7459C10.5607 45.1583 5.41616 46.5434 3.40243 47.3221C2.86414 47.5303 2.25784 47.4596 1.78181 47.1333C1.30578 46.807 1.02124 46.267 1.02124 45.6899H2.77124C1.02124 45.6899 1.02124 45.69 1.02124 45.6899V17.3637C1.02124 16.6673 1.43425 16.0371 2.07288 15.7591C3.79943 15.0077 8.28221 13.4946 12.8892 13.2666C13.8545 13.2188 14.6758 13.9626 14.7236 14.9279Z" fill="#A4925A"/>
<path fill-rule="evenodd" clip-rule="evenodd" d="M39.2446 12.6941C38.0432 12.8443 36.1826 13.1946 33.67 13.9595C29.6454 15.1846 26.8702 17.6954 26.0825 18.6588C25.4708 19.407 24.3683 19.5177 23.62 18.9059C22.8718 18.2941 22.7612 17.1916 23.3729 16.4434C24.5438 15.0113 27.8836 12.0623 32.6507 10.6112C37.1267 9.24865 40.0518 9.0008 41.1789 9.1202C42.0691 9.21449 42.7446 9.96533 42.7446 10.8605V40.3488C42.7446 41.273 42.026 42.0379 41.1036 42.0954C39.9086 42.17 36.6825 42.6186 33.8116 43.7697C30.8805 44.945 27.174 47.1639 25.6822 48.1346C24.8721 48.6617 23.7881 48.4323 23.2609 47.6222C22.7338 46.8121 22.9632 45.7281 23.7733 45.201C25.3282 44.1892 29.26 41.8239 32.5091 40.5211C34.9069 39.5597 37.4648 39.0317 39.2446 38.7793V12.6941Z" fill="#A4925A"/>
</g>
<defs>
<clipPath id="clip0_4316_117762">
<rect width="50" height="50" fill="white" transform="translate(0 0.403015)"/>
</clipPath>
</defs>
</svg>
