<svg width="50" height="51" viewBox="0 0 50 51" fill="none" xmlns="http://www.w3.org/2000/svg">
<path fill-rule="evenodd" clip-rule="evenodd" d="M5.5 12.9031V43.9031H44.5V12.9031H5.5ZM5 9.40308C3.34315 9.40308 2 10.7462 2 12.4031V44.4031C2 46.0599 3.34315 47.4031 5 47.4031H45C46.6569 47.4031 48 46.0599 48 44.4031V12.4031C48 10.7462 46.6569 9.40308 45 9.40308H5Z" fill="#A4925A"/>
<path d="M25 24.9871C26.9441 23.1026 30.0836 22.8582 32.1156 24.485C34.7629 26.6072 34.3691 30.0616 32.4883 31.8926L26.3219 37.8742C25.9703 38.2156 25.5027 38.4031 25 38.4031C24.5008 38.4031 24.0297 38.2123 23.6781 37.8709L17.5117 31.8892C15.6273 30.0582 15.2406 26.6038 17.8844 24.485C19.9164 22.8549 23.0559 23.1026 25 24.9871Z" fill="#A4925A"/>
<path fill-rule="evenodd" clip-rule="evenodd" d="M2.25 18.4031C2.25 17.4366 3.0335 16.6531 4 16.6531L46 16.6531C46.9665 16.6531 47.75 17.4366 47.75 18.4031C47.75 19.3696 46.9665 20.1531 46 20.1531L4 20.1531C3.0335 20.1531 2.25 19.3696 2.25 18.4031Z" fill="#A4925A"/>
<path fill-rule="evenodd" clip-rule="evenodd" d="M16 6.40308C16.9665 6.40308 17.75 7.18658 17.75 8.15308V8.65308C17.75 9.61957 16.9665 10.4031 16 10.4031C15.0335 10.4031 14.25 9.61957 14.25 8.65308V8.15308C14.25 7.18658 15.0335 6.40308 16 6.40308ZM34 6.40308C34.9665 6.40308 35.75 7.18658 35.75 8.15308V8.65308C35.75 9.61957 34.9665 10.4031 34 10.4031C33.0335 10.4031 32.25 9.61957 32.25 8.65308V8.15308C32.25 7.18658 33.0335 6.40308 34 6.40308Z" fill="#A4925A"/>
</svg>
