<svg width="50" height="51" viewBox="0 0 50 51" fill="none" xmlns="http://www.w3.org/2000/svg">
<path d="M29.4998 20.2C31.0998 18.5 33.7998 18.3 35.4998 19.8C37.6998 21.7 37.3998 24.8 35.7998 26.4L30.5998 31.7C30.2998 32 29.8998 32.2 29.4998 32.2C29.0998 32.2 28.6998 32 28.3998 31.7L23.1998 26.4C21.5998 24.8 21.2998 21.7 23.4998 19.8C25.1998 18.3 27.8998 18.5 29.4998 20.2Z" fill="#A4925A"/>
<path fill-rule="evenodd" clip-rule="evenodd" d="M9.9502 25C9.9502 14.3335 18.6337 5.64999 29.3002 5.64999C39.9667 5.64999 48.6502 14.3335 48.6502 25C48.6502 27.9158 48.0049 30.7561 46.7826 33.265L49.0911 40.7446L49.1054 40.8065C49.6611 43.2146 47.5552 45.763 44.8468 44.8602L44.8339 44.8559L37.8172 42.3955C35.253 43.61 32.3324 44.35 29.3002 44.35C18.6337 44.35 9.9502 35.6665 9.9502 25ZM29.3002 9.14999C20.5667 9.14999 13.4502 16.2665 13.4502 25C13.4502 33.7335 20.5667 40.85 29.3002 40.85C31.9923 40.85 34.6172 40.1307 36.8928 38.9474L37.5647 38.598L45.6396 41.4295L43.0111 32.9133L43.3614 32.2665C44.5167 30.1337 45.1502 27.622 45.1502 25C45.1502 16.2665 38.0337 9.14999 29.3002 9.14999Z" fill="#A4925A"/>
<path fill-rule="evenodd" clip-rule="evenodd" d="M13.8917 17.8057C8.55168 19.0312 4.65022 23.6511 4.65022 29.3C4.65022 31.2301 5.0875 33.0484 5.94883 34.6849L6.28474 35.3232L4.4762 41.2247L10.1298 39.3083L10.7828 39.6348C12.575 40.5308 14.5086 41.05 16.5002 41.05C18.4253 41.05 20.1577 40.6147 21.7176 39.8348L23.2828 42.9653C21.2428 43.9853 18.9751 44.55 16.5002 44.55C14.1539 44.55 11.9225 43.9991 9.89078 43.0849L4.65363 44.8602C3.48044 45.2513 2.37024 44.8291 1.67579 44.1624C0.99215 43.5061 0.539662 42.4554 0.791893 41.3204L0.806838 41.2531L2.52349 35.6514C1.60478 33.6685 1.15022 31.5199 1.15022 29.3C1.15022 21.9489 6.24876 15.9688 13.1088 14.3943L13.8917 17.8057Z" fill="#A4925A"/>
</svg>
