<svg width="50" height="51" viewBox="0 0 50 51" fill="none" xmlns="http://www.w3.org/2000/svg">
<path fill-rule="evenodd" clip-rule="evenodd" d="M35 6.92302H15C8.65977 6.92302 3.52 12.0628 3.52 18.403V31.403C3.52 37.7432 8.65977 42.883 15 42.883H35C41.3402 42.883 46.48 37.7432 46.48 31.403V18.403C46.48 12.0628 41.3402 6.92302 35 6.92302ZM15 3.40302C6.71573 3.40302 0 10.1187 0 18.403V31.403C0 39.6873 6.71573 46.403 15 46.403H35C43.2843 46.403 50 39.6873 50 31.403V18.403C50 10.1187 43.2843 3.40302 35 3.40302H15Z" fill="#A4925A"/>
<path d="M26 24.403L38 17.4748L38 31.3312L26 24.403Z" fill="#A4925A"/>
<path d="M14 16.403H30V32.403H14V16.403Z" fill="#A4925A"/>
</svg>
