<svg id="Layer_1" xmlns="http://www.w3.org/2000/svg" viewBox="0 0 19.9 20" preserveAspectRatio="none slice"><style>.stripe-one{fill:none}.stripe-two{fill:#fff}</style><path class="stripe-one" d="M19.9 1.3L19.2 0h-2.9l3.6 6.3zM19.9 8.3L15.2 0h-2.9l7.6 13.3zM11.2 0H8.3l11.5 20h.1v-4.7zM19.9 20.3V20h-.1z"/><path class="stripe-two" d="M2.6 20h1.2L0 13.4v2zM6.6 20h1.2L0 6.4v2zM0 0v1.4L10.6 20h1.2L.3 0zM3.2 0l11.4 20h1.2L4.3 0zM7.2 0l11.4 20h1.2L8.3 0zM19.9 13.3L12.3 0h-1.1l8.7 15.3zM19.9 6.3L16.3 0h-1.1l4.7 8.3zM19.9 0h-.7l.7 1.3z"/></svg>
