<svg width="206" height="57" viewBox="0 0 206 57" fill="none" xmlns="http://www.w3.org/2000/svg">
<g clip-path="url(#clip0_1948_95816)">
<path d="M121.601 34.7697H130.437V37.6357H118.258V17.8464H121.601V34.7697Z" fill="#003057"/>
<path d="M132.872 17.8464H136.242V20.9718H132.872V17.8464ZM133.016 23.3055H136.098V37.6357H133.016V23.3055Z" fill="#003057"/>
<path d="M142.609 24.411C143.038 23.9368 143.57 23.567 144.165 23.3303C144.761 23.0936 145.403 22.9964 146.042 23.0462C149.564 23.0462 151.781 25.3391 151.781 29.5562V31.3577C151.781 35.1723 149.907 37.895 146.042 37.895C144.429 37.895 143.296 37.4651 142.609 36.6053V37.6357H139.637V17.8464H142.609V24.411ZM148.726 31.2349V29.5972C148.726 27.1064 147.745 25.7007 145.664 25.7007C143.584 25.7007 142.637 27.0655 142.609 29.4266V31.2622C142.609 33.5004 143.419 35.2473 145.664 35.2473C147.909 35.2473 148.726 33.5004 148.726 31.2622V31.2349Z" fill="#003057"/>
<path d="M162.476 26.8742C162.259 26.5272 161.955 26.2419 161.594 26.0459C161.234 25.8498 160.828 25.7496 160.417 25.7551C158.858 25.7551 157.76 26.9015 157.76 28.9691V37.6218H154.677V23.2916H157.705V24.5813C158.059 24.0649 158.544 23.65 159.11 23.3781C159.676 23.1063 160.304 22.987 160.932 23.0323C161.732 22.9864 162.529 23.1601 163.236 23.5344C163.943 23.9087 164.533 24.4692 164.941 25.1546L162.476 26.8742Z" fill="#003057"/>
<path d="M171.745 29.1673H174.861V27.9459C174.861 26.1375 174.175 25.653 172.005 25.653C170.447 25.653 169.671 25.8236 168.978 26.9428L166.754 25.3937C167.797 23.7014 169.349 23.0122 172.204 23.0122C175.898 23.0122 177.889 24.1586 177.889 27.9732V37.6221H174.861V36.3051C174.175 37.4242 173.275 37.8814 171.518 37.8814C168.339 37.8814 166.383 36.2778 166.383 33.4118C166.383 30.3411 168.662 29.1673 171.745 29.1673ZM174.861 31.5216H171.978C170.159 31.5216 169.41 32.1494 169.41 33.4118C169.41 34.6742 170.392 35.2747 171.861 35.2747C173.735 35.2747 174.861 34.7015 174.861 32.204V31.5216Z" fill="#003057"/>
<path d="M189.051 26.8741C188.832 26.5286 188.528 26.2443 188.167 26.0485C187.807 25.8526 187.402 25.7516 186.991 25.755C185.433 25.755 184.341 26.9014 184.341 28.9691V37.6218H181.238V23.2916H184.266V24.5813C184.621 24.0643 185.107 23.6491 185.674 23.3773C186.242 23.1054 186.871 22.9865 187.499 23.0323C188.303 22.982 189.106 23.1536 189.818 23.5281C190.531 23.9026 191.125 24.4654 191.536 25.1545L189.051 26.8741Z" fill="#003057"/>
<path d="M195.778 23.292L199.444 33.405L202.726 23.3125H205.904L200.824 38.1817C199.588 41.853 198.517 43.0608 194.481 43.0608V40.263C196.499 40.263 197.309 39.9491 198.03 37.7996L192.538 23.292H195.778Z" fill="#003057"/>
<path d="M80.2815 53.1719C79.9569 53.1664 79.6381 53.2572 79.3656 53.4327C79.0932 53.6081 78.8795 53.8602 78.7518 54.1569C78.6241 54.4535 78.5882 54.7812 78.6487 55.0982C78.7092 55.4153 78.8633 55.7072 79.0913 55.9368C79.3194 56.1664 79.6111 56.3232 79.9292 56.3874C80.2474 56.4515 80.5775 56.42 80.8776 56.2969C81.1776 56.1738 81.4339 55.9646 81.6139 55.696C81.7938 55.4275 81.8892 55.1118 81.8879 54.7891C81.8897 54.5774 81.8493 54.3674 81.7691 54.1713C81.6888 53.9751 81.5703 53.7967 81.4203 53.6464C81.2703 53.496 81.0918 53.3767 80.8952 53.2952C80.6985 53.2138 80.4876 53.1719 80.2746 53.1719H80.2815ZM80.2815 56.1607C79.9173 56.1607 79.5681 56.0169 79.3106 55.761C79.0531 55.505 78.9084 55.1579 78.9084 54.7959C78.9084 54.434 79.0531 54.0868 79.3106 53.8309C79.5681 53.575 79.9173 53.4312 80.2815 53.4312C80.6456 53.4312 80.9949 53.575 81.2524 53.8309C81.5099 54.0868 81.6545 54.434 81.6545 54.7959C81.6545 55.1579 81.5099 55.505 81.2524 55.761C80.9949 56.0169 80.6456 56.1607 80.2815 56.1607Z" fill="#B3A369"/>
<path d="M80.5653 54.8439C80.6659 54.8222 80.756 54.7671 80.8209 54.6877C80.8858 54.6084 80.9215 54.5094 80.9223 54.4071C80.9276 54.3353 80.9147 54.2633 80.8847 54.1977C80.8547 54.1321 80.8086 54.0751 80.7507 54.0318C80.5827 53.9272 80.3853 53.8794 80.1877 53.8953C80.0153 53.896 79.8432 53.9096 79.6729 53.9363V55.7446H79.9612V54.953H80.1671C80.214 54.9453 80.262 54.9475 80.3079 54.9595C80.3539 54.9715 80.3967 54.993 80.4337 55.0227C80.4707 55.0523 80.5009 55.0894 80.5224 55.1315C80.5439 55.1736 80.5562 55.2198 80.5585 55.2669C80.5687 55.4282 80.6107 55.5858 80.682 55.731H81.0047C80.9421 55.5879 80.9027 55.4359 80.888 55.2806C80.8331 55.0213 80.7232 54.8712 80.5653 54.8439ZM80.174 54.7279H79.9612V54.1205H80.174C80.4967 54.1205 80.6134 54.2775 80.6134 54.4344C80.6134 54.5914 80.4143 54.7279 80.174 54.7279Z" fill="#B3A369"/>
<path d="M36.321 18.1039V32.2157H43.9345L44.7377 27.9781H48.1703C46.9071 34.4403 40.4538 38.8963 32.2636 38.8963C31.7007 38.8963 31.1309 38.8963 30.5679 38.8349C26.3455 38.5938 22.2768 37.1748 18.8285 34.7406C15.4783 32.2294 13.7276 28.8584 13.7276 24.9961C13.7355 22.9427 14.1849 20.9148 15.0457 19.0482C15.9065 17.1817 17.1588 15.5196 18.7186 14.1734C21.9329 11.4195 25.9974 9.84007 30.2384 9.69692H31.0691C36.4311 9.77244 41.6104 11.6456 45.7675 15.0127L46.0764 15.2516L46.3716 15.4836L46.4883 15.5859H55.2277V0.416443H46.3716V4.7769C41.0738 1.62119 35.0072 -0.030889 28.831 0.000186295H28.7143C20.5683 0.0356371 12.7699 3.28545 7.03408 9.03501C2.42754 13.6957 -0.0782531 19.4005 -0.00273607 25.0916C0.0796462 31.2331 3.04541 36.9037 8.3522 41.1345C13.7492 45.2965 20.3939 47.5405 27.2246 47.5081C28.0759 47.5081 28.9409 47.4739 29.7922 47.4057C36.6574 46.853 42.7193 45.2971 47.0101 43.0111V44.8945H56.4085V27.9781H59.6557V47.5899H54.754V56.4064H76.6402V47.5899H71.7385V27.9781H82.8189L83.5878 32.2089H91.2425V18.1039H36.321Z" fill="#B3A369"/>
<path d="M105.287 0.154577L104.257 0.156006L104.336 56.2687L105.366 56.2673L105.287 0.154577Z" fill="#B3A369"/>
</g>
<defs>
<clipPath id="clip0_1948_95816">
<rect width="205.908" height="56.413" fill="white"/>
</clipPath>
</defs>
</svg>
