<svg width="24" height="24" viewBox="0 0 24 24" fill="none" xmlns="http://www.w3.org/2000/svg">
<path fill-rule="evenodd" clip-rule="evenodd" d="M9.23739 16.4677C13.2298 16.4677 16.4663 13.2309 16.4663 9.23814C16.4663 5.24539 13.2298 2.00863 9.23739 2.00863C5.24496 2.00863 2.00847 5.24539 2.00847 9.23814C2.00847 13.2309 5.24496 16.4677 9.23739 16.4677ZM9.23739 18.4763C14.3391 18.4763 18.4748 14.3402 18.4748 9.23814C18.4748 4.13606 14.3391 0 9.23739 0C4.13572 0 0 4.13606 0 9.23814C0 14.3402 4.13572 18.4763 9.23739 18.4763Z" fill="#222222"/>
<path fill-rule="evenodd" clip-rule="evenodd" d="M14.8554 14.8547C15.2476 14.4625 15.8834 14.4625 16.2756 14.8547L23.7058 22.2855C24.0979 22.6777 24.0979 23.3136 23.7058 23.7058C23.3136 24.098 22.6777 24.098 22.2856 23.7058L14.8554 16.275C14.4632 15.8828 14.4632 15.2469 14.8554 14.8547Z" fill="#222222"/>
</svg>
